<svg width="130" height="142" viewBox="0 0 130 142" fill="none" xmlns="http://www.w3.org/2000/svg">
<path fill-rule="evenodd" clip-rule="evenodd" d="M66 0H130V70H66V0ZM64 72H0V142H64V72ZM130 72H66V142H130V72ZM10.075 67.125C9.175 68.0583 7.8 68.525 5.95 68.525C4.53333 68.525 3.19167 68.225 1.925 67.625L1.875 65.725L0.65 65.85L0.625 68.5C2.14167 69.5167 4.025 70.025 6.275 70.025C8.05833 70.025 9.55 69.6167 10.75 68.8C11.95 67.9833 12.55 66.7667 12.55 65.15C12.55 63.95 12.2167 62.9833 11.55 62.25C10.8833 61.5167 10.075 61 9.125 60.7C8.175 60.4 7.225 60.1333 6.275 59.9C5.325 59.65 4.51667 59.2917 3.85 58.825C3.18333 58.3583 2.85 57.675 2.85 56.775C2.85 55.875 3.26667 55.1833 4.1 54.7C4.93333 54.2 5.90833 53.95 7.025 53.95C8.15833 53.95 9.19167 54.0333 10.125 54.2L10.4 56.3L11.625 56.1L11.35 52.975H11.275V52.95C9.825 52.6167 8.275 52.45 6.625 52.45C4.975 52.45 3.65 52.875 2.65 53.725C1.65 54.575 1.15 55.6667 1.15 57C1.15 57.7667 1.325 58.425 1.675 58.975C2.04167 59.525 2.50833 59.95 3.075 60.25C3.64167 60.55 4.26667 60.8083 4.95 61.025C5.65 61.2417 6.34167 61.45 7.025 61.65C7.725 61.8333 8.35833 62.0583 8.925 62.325C9.49167 62.575 9.95 62.9417 10.3 63.425C10.6667 63.8917 10.85 64.4917 10.85 65.225C10.85 65.9583 10.5917 66.5917 10.075 67.125ZM24.8953 68.625V70H29.9453V68.625H28.2203L22.1953 52.5H20.6703L14.8453 68.625H13.1953V70H18.2453V68.625H16.4453L17.5703 65.375H25.2703L26.4203 68.625H24.8953ZM17.9953 64.125L21.3453 54.4L24.8203 64.125H17.9953ZM31.2525 52.5V53.875H32.8525V68.625H31.2525V70H36.3025V68.625H34.4025L34.3025 54.75L44.2775 70H46.1025V53.875H47.6775V52.5H42.9025V53.875H44.5275L44.6275 67.75L34.6775 52.5H31.2525ZM49.6143 52.5V53.875H51.1393V68.625H49.6143V70H55.0143C56.0643 70 56.9809 69.9333 57.7643 69.8C59.5309 69.4667 60.8309 68.6667 61.6643 67.4C62.6143 65.95 63.0893 63.7667 63.0893 60.85C63.0893 57.9 62.4059 55.775 61.0393 54.475C59.6893 53.1583 57.8893 52.5 55.6393 52.5H49.6143ZM52.8393 53.875H55.5143C57.2476 53.875 58.6559 54.4333 59.7393 55.55C60.8393 56.6667 61.3893 58.475 61.3893 60.975C61.3893 62.1083 61.3143 63.1 61.1643 63.95C60.9143 65.4 60.3476 66.55 59.4643 67.4C58.6309 68.2167 57.1059 68.625 54.8893 68.625H52.8393V53.875Z" fill="black"/>
</svg>
